# xmcd
#
# Track frame offsets: 
#        150
#        15958
#        42231
#        61763
#        86695
#        105222
#        129387
#        150602
#        168368
#        191415
#        217292
#
# Disc length: 3160 seconds
#
# Revision: 0
# Processed by: cddbd v1.5.2PL0 Copyright (c) Steve Scherf et al.
# Submitted via: ExactAudioCopy v0.99pb5
#
DISCID=820c560b
DTITLE=BlueShot - Win or Lose
DYEAR=2012
DGENRE=Blues
TTITLE0=Long Gone
TTITLE1=Win or Lose
TTITLE2=Misery
TTITLE3=Suspicious Mind
TTITLE4=Nasty
TTITLE5=Rambling
TTITLE6=Pride and Joy
TTITLE7=Why Don't You Call
TTITLE8=Trouble
TTITLE9=You Got To Move
TTITLE10=That's It
EXTD=BS004 - BlueShot 2012\n\nTorben Pape: Guitars and lead vocals\nSø
EXTD=ren Ahlgreen: Drums\nH. C. Röder Jessen: Bass\n\nGuests:\nAnna M.
EXTD=Röder Jessen: Backing vocals and lead vocals on "Pride and Joy"\n
EXTD=Ulrik Bust: Horns\n
EXTT0=
EXTT1=
EXTT2=
EXTT3=
EXTT4=
EXTT5=
EXTT6=
EXTT7=
EXTT8=
EXTT9=
EXTT10=
PLAYORDER=
